# xmcd
#
# Track frame offsets: 
#        150
#        12660
#        27493
#        42165
#        58070
#        74368
#        92355
#        108088
#        124465
#        140538
#
# Disc length: 2076 seconds
#
# Revision: 0
# Processed by: cddbd v1.5.2PL0 Copyright (c) Steve Scherf et al.
# Submitted via: ExactAudioCopy v0.99pb5
#
DISCID=8b081a0a
DTITLE=Terri Lynn - The Only Life For Me
DYEAR=1994
DGENRE=Christian Country
TTITLE0=Send The Light
TTITLE1=No Shadow
TTITLE2=This Is The Only Life For Me
TTITLE3=Fearless
TTITLE4=No Stranger To Treason
TTITLE5=Forever
TTITLE6=Yielded And Still
TTITLE7=Letting Go
TTITLE8=Take It From A Friend
TTITLE9=Face To Face
EXTD=
EXTT0=
EXTT1=
EXTT2=
EXTT3=
EXTT4=
EXTT5=
EXTT6=
EXTT7=
EXTT8=
EXTT9=
PLAYORDER=
